<svg xmlns="http://www.w3.org/2000/svg" xmlns:xlink="http://www.w3.org/1999/xlink" viewBox="0 0 411.96 184.37"><defs><style>.cls-1{fill:#1a1a1a;}.cls-2{opacity:0.8;}.cls-3{fill:url(#linear-gradient);}.cls-4{fill:url(#linear-gradient-2);}</style><linearGradient id="linear-gradient" x1="254.54" y1="136.8" x2="322.02" y2="136.8" gradientUnits="userSpaceOnUse"><stop offset="0" stop-color="#ed1c24"/><stop offset="1" stop-color="#fcee21"/></linearGradient><linearGradient id="linear-gradient-2" x1="250.35" y1="161.97" x2="312.15" y2="161.97" xlink:href="#linear-gradient"/></defs><g id="Capa_2" data-name="Capa 2"><g id="Capa_1-2" data-name="Capa 1"><path class="cls-1" d="M90.78.83a24.45,24.45,0,0,1,5.84,2A14.88,14.88,0,0,1,101,5.94a10.25,10.25,0,0,1,2.4,4.36,11.56,11.56,0,0,1,0,5.56q-1.06,5-7,9.47a10.49,10.49,0,0,0-4.36.08,19.77,19.77,0,0,0-4.13,1,27.43,27.43,0,0,0,6.9-6,16.47,16.47,0,0,0,3.47-6.66q1.23-6-3.3-9.26T82.62.92A46.63,46.63,0,0,0,69,2.47,34.44,34.44,0,0,0,56.7,8.39c-3.62,2.74-5.81,5.92-6.57,9.51a13,13,0,0,0,.81,7.83,26.78,26.78,0,0,0,4.82,7.6,95.52,95.52,0,0,0,7.18,7.22q4,3.63,8,7.35a87.9,87.9,0,0,1,7.11,7.35,25.8,25.8,0,0,1,4.65,7.83,14.09,14.09,0,0,1,.57,8.29,30.08,30.08,0,0,1-1,3.18,59.69,59.69,0,0,1,8.9,4.25l-1.88,2.86a47.3,47.3,0,0,0-8.16-4.49,32.24,32.24,0,0,1-9.68,10.94A53.46,53.46,0,0,1,57,95.7a93.1,93.1,0,0,1-16.57,4.08,91.93,91.93,0,0,1-16.73,1.06Q12,100.43,6,96.72t-6-9a13,13,0,0,1,3.88-9.27,25.68,25.68,0,0,1,10.33-6.28,73,73,0,0,1,14.85-3.31,105.91,105.91,0,0,1,17.27-.73A139.32,139.32,0,0,1,64.09,69.9a99.69,99.69,0,0,1,16.24,4l.17-.65a10.21,10.21,0,0,0-.9-6.94,24.81,24.81,0,0,0-5.06-6.9q-3.36-3.3-7.51-6.82t-8.29-7.22a83.87,83.87,0,0,1-7.39-7.51,26.58,26.58,0,0,1-4.9-8.29,15.65,15.65,0,0,1-.65-8.9,18.83,18.83,0,0,1,5-9.1,30.38,30.38,0,0,1,9.35-6.65,51.64,51.64,0,0,1,11.63-3.8A53.55,53.55,0,0,1,83.92,0,44.64,44.64,0,0,1,90.78.83ZM37.68,99.29a85.68,85.68,0,0,0,13.06-2.41A70.18,70.18,0,0,0,63,92.47,39.4,39.4,0,0,0,73,85.66a26.07,26.07,0,0,0,6.49-9.23,85.27,85.27,0,0,0-15.11-4.77,117.12,117.12,0,0,0-16.49-2.49,89.3,89.3,0,0,0-16,.12A61.07,61.07,0,0,0,18.12,72.1a22.74,22.74,0,0,0-9.55,6A13.14,13.14,0,0,0,5,87.21q0,5.15,5.14,8.69t15.11,3.88A96,96,0,0,0,37.68,99.29Z"/><path class="cls-1" d="M107.4,72.43a.94.94,0,0,1-.12-1.14,1.27,1.27,0,0,1,1.22-.57,6.93,6.93,0,0,0,1.06-.08,6.78,6.78,0,0,0,.86-.21,2.34,2.34,0,0,0,.65-.33,2.27,2.27,0,0,0,.45-.4,2.11,2.11,0,0,0,.29-.49,2.61,2.61,0,0,0,.16-.53,2.77,2.77,0,0,0,0-.49q0-2.3-2.94-1.56a10.19,10.19,0,0,0-5.79,3.92,6.62,6.62,0,0,0-1.47,4,5.51,5.51,0,0,0,1.83,4.17,8.44,8.44,0,0,0,5.51,1.88,82.5,82.5,0,0,0,17.56-2.21,91.93,91.93,0,0,0,17.47-5.55l.16.49a91.67,91.67,0,0,1-17.55,5.55,83.63,83.63,0,0,1-17.64,2.21,32.6,32.6,0,0,1-4.2-.25,17.88,17.88,0,0,1-3.59-.86,5.55,5.55,0,0,1-2.7-1.87A5.21,5.21,0,0,1,97.72,75a8.15,8.15,0,0,1,3.35-6.37,11.36,11.36,0,0,1,7.43-2.77,5.73,5.73,0,0,1,3.06.69,2.22,2.22,0,0,1,1.1,2,4.22,4.22,0,0,1-1.1,2.78,4.41,4.41,0,0,1-2.9,1.55A1.18,1.18,0,0,1,107.4,72.43Z"/><path class="cls-1" d="M188.26,73.33q-20.73,8.73-27.51,8.73a9.21,9.21,0,0,1-4.37-1,3,3,0,0,1-1.83-2.7,7.76,7.76,0,0,1,.57-2.9,9.58,9.58,0,0,1,1.26-2.32l1.6-2a13.28,13.28,0,0,0,1.22-1.8,107.13,107.13,0,0,1-9,8.29q-3.84,3.06-6.21,3.06a1.48,1.48,0,0,1-1.3-.86,4.26,4.26,0,0,1-.49-2.16,9.86,9.86,0,0,1,1.26-4.29A15,15,0,0,1,147,68.88a7.15,7.15,0,0,1,4.73-2,4.89,4.89,0,0,1,3,1.23,4.56,4.56,0,0,1,1.8,3.1l3.59-3.51a5.83,5.83,0,0,0,3.84.41c-.49.76-1.26,1.87-2.29,3.34q-4.24,6.21-4.33,8.08c0,1.36,1.12,2,3.35,2q6.62,0,27.35-8.74ZM144.14,80c.19.17.58.14,1.18-.08a12,12,0,0,0,3.67-2,40.44,40.44,0,0,0,3.43-2.77l3.76-3.51a3.08,3.08,0,0,0-.45-1.47,6.73,6.73,0,0,0-.9-1.31c-.3-.33-.53-.57-.69-.73-.44-.22-1.34.23-2.7,1.34a28.69,28.69,0,0,0-4.24,4.49,21.25,21.25,0,0,0-3.1,5.1C143.93,79.53,144,79.86,144.14,80Z"/><path class="cls-1" d="M241.41,73.33a102.83,102.83,0,0,1-17.47,6,76.64,76.64,0,0,1-19,2.69q-6,0-5.8-4.24c.11-2.61,1.69-5.45,4.74-8.49.65-.6,1.3-1.17,2-1.72a4.4,4.4,0,0,0,.81-.57l1.06-.82c.28-.27.17-.38-.32-.32a14.86,14.86,0,0,0-2.12.32c-3.32.6-5.31.69-6,.25a105.63,105.63,0,0,1-11,6.94l-.16-.49A74.2,74.2,0,0,0,199,65.74a4.81,4.81,0,0,1,0-3.88c.52-1.61,1.4-2.41,2.65-2.41.49,0,.74.35.74,1.06a6.45,6.45,0,0,1-2.53,5.23,5.7,5.7,0,0,0,2.85.28c1.09-.13,2.49-.38,4.21-.73a20.83,20.83,0,0,1,3.38-.53,1.63,1.63,0,0,1,1.64,1.34,1.91,1.91,0,0,1-.82,2.25,26.88,26.88,0,0,0-7,7.59q-2.45,5.07.9,5.55a77.11,77.11,0,0,0,18.9-2.65,96.35,96.35,0,0,0,17.43-6Z"/><path class="cls-1" d="M266,81.37q8.07-2.82,14.36-5.67l6.29-2.86.16.49c-.65.27-1.53.67-2.65,1.18s-3.21,1.43-6.29,2.74-5.94,2.46-8.61,3.47-5.44,1.92-8.33,2.73a26.33,26.33,0,0,1-6.61,1.23q-6.45,0-8.49-3.51t-.41-9.55l-4.89,2-.09-.41Q243,72.19,245.58,71a51.73,51.73,0,0,1,6.16-12.69A93.94,93.94,0,0,1,262,45a89.07,89.07,0,0,1,9.26-8.82,48.06,48.06,0,0,1,9.68-6.2,21.47,21.47,0,0,1,9.14-2.37,3.55,3.55,0,0,1,2.49.74,3.12,3.12,0,0,1,.78,2.36q0,4.57-3.64,9.84a52.34,52.34,0,0,1-9.79,10.37,123.43,123.43,0,0,1-13.76,9.8,172.87,172.87,0,0,1-16.08,8.77,26.85,26.85,0,0,0-2.45,7.59,6.43,6.43,0,0,0,1.22,5.15c1.09,1.3,2.91,2,5.47,2Q257.91,84.19,266,81.37Zm11.79-46.61A115.74,115.74,0,0,0,262.11,51a92.76,92.76,0,0,0-11.63,17.72A160.62,160.62,0,0,0,271,56.1a95.75,95.75,0,0,0,15.79-13.92q6.09-6.88,6.09-11.47a2.72,2.72,0,0,0-.62-2,3.16,3.16,0,0,0-2.16-.57Q285.74,28.1,277.78,34.76Z"/><path class="cls-1" d="M310.07,79.41q-8.24,2.66-12.57,2.65c-4.14,0-7.2-.66-9.18-2a5.37,5.37,0,0,1-2.49-5.59,7.11,7.11,0,0,1,1.87-3.88A10.52,10.52,0,0,1,291.79,68a15.92,15.92,0,0,1,5.55-.94c2.55,0,3.81.77,3.75,2.29s-1.14,2.83-3.26,4.08a10.43,10.43,0,0,1-8.09,1q-1.22,3.92.9,5.55t6.7,1.64q4.32,0,12.61-2.66t16.45-6.08l.16.49Q318.33,76.75,310.07,79.41Zm-16.86-9.88a15.14,15.14,0,0,0-3.3,4.37,7.08,7.08,0,0,0,5.39-1.14c1.79-1.14,2.8-2.29,3-3.43s-.11-1.8-1.15-1.8A6.51,6.51,0,0,0,293.21,69.53Z"/><path class="cls-1" d="M411.55,73.33c-.38.16-.9.41-1.55.73s-2,1-4,2-4,1.91-6,2.78-4.18,1.84-6.74,2.9-4.91,2-7.06,2.73-4.24,1.4-6.28,1.92a21.15,21.15,0,0,1-4.94.78,8.45,8.45,0,0,1-5.8-1.76,5.94,5.94,0,0,1-1.92-4.77,25.07,25.07,0,0,1,1.35-7.11c-1.85.93-3.95,1.93-6.29,3s-5.58,2.55-9.71,4.37a118.58,118.58,0,0,1-11.72,4.49,30.47,30.47,0,0,1-8.45,1.76c-2.88,0-5-.73-6.24-2.17a7.16,7.16,0,0,1-1.47-5.88,30.79,30.79,0,0,1,2.45-8.36,70.37,70.37,0,0,1,5.43-10,18.74,18.74,0,0,0,2.08-5,9.35,9.35,0,0,0,.24-3.75,4.89,4.89,0,0,0-1.18-2.41q-6-.5-4.49-1.47l.65-.24a3.9,3.9,0,0,1,4,1.22c2.07.16,4.44.25,7.1.25a112.64,112.64,0,0,1,17.88-17.56,7.51,7.51,0,0,0,3.19.66,10.22,10.22,0,0,0,3.59-.41,133.57,133.57,0,0,0-19.35,17.31,151.06,151.06,0,0,0,18-1.47q18.61-2.87,23.43-3.35a101,101,0,0,1,13.64-12.74,7.46,7.46,0,0,0,3.18.66,10.19,10.19,0,0,0,3.59-.41,155.13,155.13,0,0,0-13.71,12q11.6-.49,14.94,3.35l-.25.4q-3.51-3-16.16-2.36-15.51,15.35-21.88,27.18-6.78,12.66,1.63,14a13.33,13.33,0,0,0,2.21.17q4,0,13.1-3.43t16.2-6.94l7.11-3.43Zm-39.84-6.78q1.8-3.35,4.08-6.81c1.53-2.32,3.19-4.64,5-7s3.7-4.63,5.72-6.86c-3.11.27-7.7.82-13.8,1.63l-11.51,1.55q-5.88.66-15.35.74-13.54,14.61-18,25.39t3.59,11.34a5.9,5.9,0,0,0,1.06.09q4,0,13.11-3.43t16.2-6.94l7.1-3.43A47.56,47.56,0,0,1,371.71,66.55Zm-41.31-18c.6.11,1.55.22,2.86.33a3.4,3.4,0,0,0-3.18-.65C329.64,48.38,329.75,48.48,330.4,48.59Zm4.25,9.15a94.24,94.24,0,0,1,6-7.92q-3.6-.09-6.21-.33C335.87,51.51,336,54.25,334.65,57.74Z"/><g class="cls-2"><path class="cls-3" d="M314.64,110.32a8.19,8.19,0,0,1,4.91-.53c2.92.53,3.65,1.15,0,3.76s-17.32,12.94-17.32,12.94a16.9,16.9,0,0,1-.73,6.78s13.67,5,7.3,6.68-8.24,2.06-9.7,2.39c0,0-2.72,5.23-10,7.84,0,0,1.46.73-.94,3.65l-3.56,5.11,1.26,1.88h-2.6l-1.36.83L283,164l-2.19-2.09,6.88-9.39a2.16,2.16,0,0,0-2.5-1.15s1.43,1.25-.64,3.13-5.62,4.8-5.62,4.8l1.15,1.36-3.13.1-.94.53.83,2.71L275,161l9-7.72-2-1.57s-5.32.42-13.87-4.59a37.22,37.22,0,0,1-8.25-8.14l-5.32-1.67,5.12-1.36s1.85-4.1,5.73-4.69a19.77,19.77,0,0,1,9,.42l5.63-.53s15-5.21,19.1-5.94c0,0,6.78-6.47,8.55-8.45S314.64,110.32,314.64,110.32Z"/><path class="cls-4" d="M251,155.29a23.77,23.77,0,0,0,4.39.83c4.07.63,5.84.73,8.24,1.36s4.49,1.15,4.8,1.15-1.77-4.91.52-2.72a23.8,23.8,0,0,1,3.13,3.45l3.47,1.19h5.71l8.66.58s7.93,1.67,8.67,1.77,12,.94,13.14,2.4-.21,3.14-2,3.34c0,0-5.43-1.67-8.35-2.4s-3.13-1-5.42-1.56-6-1.46-8.35-1.46a86.54,86.54,0,0,1-10.23-.32,77.68,77.68,0,0,1-8.45-2c-3.34-.83-4.38-1.46-5.84-1.46a16.94,16.94,0,0,1-5.43-1.46c-.62-.42-6.15-.42-6.68-.42S249.85,156.12,251,155.29Z"/></g><path class="cls-1" d="M50.69,118.35c0,18.18-13.6,32.48-37.75,32.48H4.19v32.34h-4V86H12.94C37.09,86,50.69,100.17,50.69,118.35Zm-4,0c0-17.21-12.36-28.73-33.73-28.73H4.19v57.6h8.75C34.31,147.22,46.67,135.28,46.67,118.35Z"/><path class="cls-1" d="M108.71,179.28v3.89H64.57V86h4v93.27Z"/><path class="cls-1" d="M172.69,160.55H130.07l-7.63,22.62h-4l32.47-97.3c.14-.28.28-.42.56-.42s.42.14.56.42l32.34,97.3h-4Zm-1.11-3.75L151.45,96.56,131.19,156.8Z"/><path class="cls-1" d="M231.53,89.62H208.08v93.55h-3.75V89.62h-23.6V86h50.8Z"/><path class="cls-1" d="M335.35,134.59A48.72,48.72,0,1,1,286.64,85,49.21,49.21,0,0,1,335.35,134.59Zm-93.41,0a44.71,44.71,0,1,0,44.7-45.8A45.25,45.25,0,0,0,241.94,134.59Z"/><path class="cls-1" d="M412,86v97.72c0,.55-.41,1-.83.27L355.05,96.28l.28,6v80.92h-4V85c0-.56.41-.83.83-.28l56.08,87.72-.28-6V86Z"/></g></g></svg>